<?xml version="1.0" encoding="utf-8"?>
<!-- Generator: Adobe Illustrator 16.0.0, SVG Export Plug-In . SVG Version: 6.00 Build 0)  -->
<!DOCTYPE svg PUBLIC "-//W3C//DTD SVG 1.1//EN" "http://www.w3.org/Graphics/SVG/1.1/DTD/svg11.dtd">
<svg version="1.1" xmlns="http://www.w3.org/2000/svg" xmlns:xlink="http://www.w3.org/1999/xlink" x="0px" y="0px" width="800px"
	 height="800px" viewBox="0 0 800 800" enable-background="new 0 0 800 800" xml:space="preserve">
<g id="Background">
</g>
<g id="Objects">
	<g>
		<g>
			<defs>
				<path id="SVGID_1_" d="M691,573.811c0,11.703-9.486,21.189-21.189,21.189H130.189C118.487,595,109,585.514,109,573.811V163.189
					c0-11.703,9.487-21.189,21.189-21.189h539.621c11.703,0,21.189,9.487,21.189,21.189V573.811z"/>
			</defs>
			<use xlink:href="#SVGID_1_"  overflow="visible" fill="#FFFFFF"/>
			<clipPath id="SVGID_2_">
				<use xlink:href="#SVGID_1_"  overflow="visible"/>
			</clipPath>
			<g clip-path="url(#SVGID_2_)">
				<rect x="109" y="142" fill="#FFC416" width="582" height="20"/>
				<rect x="109" y="162" fill="#F86E3C" width="582" height="35"/>
				<rect x="109" y="197" fill="#FFD045" width="582" height="35"/>
				<path fill="#FFD045" d="M345,180.157c0-7.441-5.018-14.157-11.656-14.157H208.798c-6.637,0-12.798,6.715-12.798,14.157v12.319
					c0,7.441,6.161,13.524,12.798,13.524h124.546c6.638,0,11.656-6.083,11.656-13.524V180.157z"/>
				<path opacity="0.6" fill="#FFD045" d="M477,180.157c0-7.441-5.417-14.157-12.055-14.157H340.399
					c-6.637,0-12.399,6.715-12.399,14.157v12.319c0,7.441,5.762,13.524,12.399,13.524h124.546c6.638,0,12.055-6.083,12.055-13.524
					V180.157z"/>
				<g>
					<circle fill="#FFFFFF" cx="131.098" cy="179.948" r="7.429"/>
					<circle fill="#FFFFFF" cx="150.083" cy="179.948" r="7.429"/>
					<circle fill="#FFFFFF" cx="169.068" cy="179.948" r="7.429"/>
				</g>
				<g>
					<path fill="#F86E3C" d="M145,211h-12.685l2.338-2.953c1.028-1.299,0.809-3.186-0.49-4.214c-1.298-1.028-3.187-0.809-4.214,0.49
						l-6.187,7.815c-0.483,0.61-0.694,1.371-0.63,2.12c-0.043,0.703,0.146,1.423,0.612,2.022l5.862,7.554
						c0.591,0.762,1.477,1.161,2.372,1.161c0.643,0,1.291-0.206,1.837-0.63c1.309-1.016,1.546-2.9,0.531-4.209L131.897,217H145
						c1.657,0,3-1.343,3-3S146.657,211,145,211z"/>
					<path fill="#F86E3C" d="M181.422,212.223l-5.747-7.815c-0.981-1.334-2.86-1.621-4.194-0.64s-1.621,2.859-0.64,4.194
						l2.234,3.038H161c-1.657,0-3,1.343-3,3s1.343,3,3,3h12.222l-2.448,3.155c-1.016,1.309-0.778,3.194,0.531,4.209
						c0.547,0.424,1.195,0.63,1.837,0.63c0.895,0,1.781-0.399,2.372-1.161l5.861-7.554c0.463-0.597,0.653-1.312,0.612-2.011
						C182.052,213.552,181.863,212.823,181.422,212.223z"/>
				</g>
				<rect x="196" y="206" fill="#FFFFFF" width="480" height="18"/>
			</g>
			<rect x="98" y="572" clip-path="url(#SVGID_2_)" fill="#FFC416" width="609" height="36"/>
		</g>
		<g>
			<g>
				<polygon fill="#96A8B4" points="180.726,446.902 133.447,399.623 180.726,352.343 193.462,365.079 158.918,399.623 
					193.462,434.167 				"/>
			</g>
			<g>
				<polygon fill="#96A8B4" points="619.373,446.902 606.637,434.167 641.181,399.623 606.637,365.079 619.373,352.343 
					666.652,399.623 				"/>
			</g>
		</g>
		<g>
			<rect x="226" y="265" fill="#96A8B4" width="347" height="16"/>
			<rect x="226" y="414" fill="#96A8B4" width="183" height="16"/>
			<g>
				<rect x="226" y="307" fill="#96A8B4" width="183" height="7"/>
				<rect x="226" y="319" fill="#96A8B4" width="183" height="8"/>
				<rect x="226" y="332" fill="#96A8B4" width="162" height="7"/>
				<rect x="226" y="345" fill="#96A8B4" width="183" height="7"/>
				<rect x="226" y="357" fill="#96A8B4" width="183" height="8"/>
				<rect x="226" y="370" fill="#96A8B4" width="183" height="8"/>
				<rect x="226" y="382" fill="#96A8B4" width="99" height="8"/>
			</g>
			<g>
				<rect x="226" y="457" fill="#96A8B4" width="183" height="7"/>
				<rect x="226" y="470" fill="#96A8B4" width="183" height="8"/>
				<rect x="226" y="482" fill="#96A8B4" width="173" height="8"/>
				<rect x="226" y="495" fill="#96A8B4" width="183" height="8"/>
				<rect x="226" y="508" fill="#96A8B4" width="167" height="7"/>
				<rect x="226" y="521" fill="#96A8B4" width="183" height="6"/>
				<rect x="226" y="533" fill="#96A8B4" width="125" height="8"/>
			</g>
			<g>
				<defs>
					<rect id="XMLID_2_" x="439" y="307" width="134" height="85"/>
				</defs>
				<use xlink:href="#XMLID_2_"  overflow="visible" fill="#DE852B"/>
				<clipPath id="XMLID_6_">
					<use xlink:href="#XMLID_2_"  overflow="visible"/>
				</clipPath>
				
					<line clip-path="url(#XMLID_6_)" fill="none" stroke="#FFFFFF" stroke-width="5" stroke-miterlimit="10" x1="429.528" y1="294.836" x2="579.102" y2="401.844"/>
				
					<line clip-path="url(#XMLID_6_)" fill="none" stroke="#FFFFFF" stroke-width="5" stroke-miterlimit="10" x1="581.063" y1="297.69" x2="427.567" y2="398.99"/>
			</g>
			<g>
				<defs>
					<rect id="XMLID_3_" x="439" y="454" width="134" height="87"/>
				</defs>
				<use xlink:href="#XMLID_3_"  overflow="visible" fill="#FFC008"/>
				<clipPath id="XMLID_7_">
					<use xlink:href="#XMLID_3_"  overflow="visible"/>
				</clipPath>
				
					<line clip-path="url(#XMLID_7_)" fill="none" stroke="#FFFFFF" stroke-width="5" stroke-miterlimit="10" x1="429.528" y1="443.164" x2="579.102" y2="550.17"/>
				
					<line clip-path="url(#XMLID_7_)" fill="none" stroke="#FFFFFF" stroke-width="5" stroke-miterlimit="10" x1="581.063" y1="446.018" x2="427.567" y2="547.317"/>
			</g>
		</g>
	</g>
	<g>
		<defs>
			<rect id="SVGID_3_" x="-1" y="1" width="800" height="800"/>
		</defs>
		<clipPath id="SVGID_4_">
			<use xlink:href="#SVGID_3_"  overflow="visible"/>
		</clipPath>
		<g clip-path="url(#SVGID_4_)">
			
				<image overflow="visible" opacity="0.07" width="2061" height="1586" xlink:href="92C7A85E47768391.png"  transform="matrix(0.24 0 0 0.24 371.4458 -10.7261)">
			</image>
			<g>
				<g>
					<g>
						<g>
							<defs>
								<path id="XMLID_20_" d="M717.478,42.88c7.693-5.852,18.672-4.357,24.523,3.334l0,0c5.851,7.692,4.358,18.673-3.334,24.523
									l-147.245,112c-7.692,5.852-18.671,4.358-24.522-3.335l0,0c-5.852-7.691-4.359-18.67,3.333-24.522L717.478,42.88z"/>
							</defs>
							<clipPath id="XMLID_8_">
								<use xlink:href="#XMLID_20_"  overflow="visible"/>
							</clipPath>
						</g>
					</g>
				</g>
				<g>
					<path fill="#D19E7B" d="M642.494,143.889c0,0,15.084,7.125,34.533,3.938c21.953-3.597,34.988-11.718,33.375-29.673
						l-27.316-8.624L642.494,143.889z"/>
					<g>
						<g>
							<defs>
								<path id="XMLID_19_" d="M717.478,42.88c7.693-5.852,18.672-4.357,24.523,3.334l0,0c5.851,7.692,4.358,18.673-3.334,24.523
									l-147.245,112c-7.692,5.852-18.671,4.358-24.522-3.335l0,0c-5.852-7.691-4.359-18.67,3.333-24.522L717.478,42.88z"/>
							</defs>
							<use xlink:href="#XMLID_19_"  overflow="visible" fill="#1B424C"/>
							<clipPath id="XMLID_9_">
								<use xlink:href="#XMLID_19_"  overflow="visible"/>
							</clipPath>
							<polygon opacity="0.2" clip-path="url(#XMLID_9_)" fill="#96A8B4" points="566,186.31 750,39.308 751,95 571,200 							"/>
						</g>
						<g>
							<path fill="#496870" d="M532.193,163.32c19.193,9.16,31.631,28.704,41.23,47.339c0.9,1.751,1.634,3.552,2.203,5.378
								c0.322-0.197,0.639-0.411,0.945-0.646l10.348-7.871c4.835-3.677,7.822-11.793,5.711-17.739
								c-5.438-15.272-15.596-28.627-28.861-37.947c-5.166-3.623-13.787-2.91-18.624,0.769c-4.138,3.147-6.208,4.724-10.347,7.872
								C533.735,161.282,532.873,162.254,532.193,163.32z"/>
						</g>
						<g>
							<circle opacity="0.4" fill="#FFFFFF" cx="478.951" cy="246.3" r="98.5"/>
							<circle fill="none" stroke="#1B424C" stroke-width="26" stroke-miterlimit="10" cx="478.951" cy="246.3" r="98.5"/>
						</g>
					</g>
					<path fill="#FFBC99" d="M684.502,111.027c0,0-14.031-18.753-34.145-17.093l-36.282,27.599c0,0-16.447-30.588-2.261-46.062
						c6.69-7.298,6.182-17.295,9.652-25.403c3.602-8.411,10.249-12.729,10.756-17.897c1.205-12.276,10.042-31.287,33.367-29.675
						c11.01,0.761,73.91,13.686,94.603-2.709c0,0,34.501,38.726,27.849,60.766c-10.291,3.338-31.963,33.436-55.105,55.081
						c-29.199,27.309-56.59,39.603-72.403,33.509C641.818,141.929,684.502,111.027,684.502,111.027z"/>
					<path fill="#FFFFFF" d="M804.641,57.902l-18.807,11.373c0,0-11.361-45.897-45.199-71.038l15.559-11.55l48.686,70.283"/>
					<path fill="#1B424C" d="M794.971,65.757c0,0-7.008-39.971-47.837-74.118l9.013-8.365l99.807,25.449l-6.27,24.584
						L794.971,65.757z"/>
					<g>
						<circle opacity="0.5" fill="#FFFFFF" cx="486.541" cy="256" r="62"/>
						<circle fill="#FFFFFF" cx="486.541" cy="291" r="24"/>
					</g>
				</g>
				<g>
					<g>
						<g>
							<defs>
								<path id="XMLID_18_" d="M717.478,42.88c7.693-5.852,18.672-4.357,24.523,3.334l0,0c5.851,7.692,4.358,18.673-3.334,24.523
									l-147.245,112c-7.692,5.852-18.671,4.358-24.522-3.335l0,0c-5.852-7.691-4.359-18.67,3.333-24.522L717.478,42.88z"/>
							</defs>
							<clipPath id="XMLID_10_">
								<use xlink:href="#XMLID_18_"  overflow="visible"/>
							</clipPath>
						</g>
					</g>
				</g>
			</g>
		</g>
		<g clip-path="url(#SVGID_4_)">
			
				<image overflow="visible" opacity="0.07" width="1750" height="1855" xlink:href="92C7A85E47768393.png"  transform="matrix(0.24 0 0 0.24 -42.354 374.6724)">
			</image>
			<g>
				<g>
					<g>
						<defs>
							<path id="XMLID_17_" d="M78.782,738.76c-5.901,7.656-16.89,9.076-24.544,3.177l0,0c-7.655-5.901-9.077-16.891-3.176-24.544
								L164.005,570.87c5.9-7.655,16.889-9.076,24.544-3.176l0,0c7.655,5.9,9.077,16.888,3.177,24.544L78.782,738.76z"/>
						</defs>
						<clipPath id="XMLID_11_">
							<use xlink:href="#XMLID_17_"  overflow="visible"/>
						</clipPath>
					</g>
				</g>
				<g>
					<path fill="#D19E7B" d="M124.831,621.692c0,0-16.419-2.944-34.364,5.204c-20.256,9.197-30.722,20.437-24.482,37.35
						l28.619,1.203L124.831,621.692z"/>
					<g>
						<defs>
							<path id="XMLID_16_" d="M78.782,738.76c-5.901,7.656-16.89,9.076-24.544,3.177l0,0c-7.655-5.901-9.077-16.891-3.176-24.544
								L164.005,570.87c5.9-7.655,16.889-9.076,24.544-3.176l0,0c7.655,5.9,9.077,16.888,3.177,24.544L78.782,738.76z"/>
						</defs>
						<use xlink:href="#XMLID_16_"  overflow="visible" fill="#1B424C"/>
						<clipPath id="XMLID_12_">
							<use xlink:href="#XMLID_16_"  overflow="visible"/>
						</clipPath>
						<path opacity="0.2" clip-path="url(#XMLID_12_)" fill="#96A8B4" d="M51.312,758.207
							c0.386-5.701,142.357-187.777,142.357-187.777l18.593,41.741L64.564,775.906L51.312,758.207z"/>
					</g>
					<path fill="#FFBC99" d="M92.847,664.371c0,0,18.436,14.445,37.42,7.598l27.83-36.105c0,0,23.855,25.241,14.195,43.88
						c-4.556,8.79-1.458,18.309-2.694,27.041c-1.284,9.061-6.575,14.962-5.717,20.083c2.039,12.166-1.536,32.824-24.474,37.35
						c-10.828,2.138-74.922,6.062-90.623,27.285c0,0-43.406-28.389-42.731-51.4c9.065-5.906,22.138-40.614,38.836-67.545
						c21.067-33.979,44.304-52.99,61.16-51.23C125.996,623.408,92.847,664.371,92.847,664.371z"/>
					<path fill="#FFFFFF" d="M-9.283,746.986l15.19-15.884c0,0,22.938,41.347,62.16,56.794l-12.008,15.207L-9.27,747.948"/>
					<path fill="#1B424C" d="M-1.995,736.882c0,0,17.188,36.761,65.509,59.079l-6.52,10.427l-102.99,1.457l-0.359-25.368
						L-1.995,736.882z"/>
					<g>
						<g>
							<path fill="#496870" d="M226.249,574.171c-20.917-3.84-38.021-19.463-52.148-34.95c-1.326-1.455-2.504-3.002-3.529-4.617
								c-0.26,0.274-0.509,0.563-0.745,0.869l-7.937,10.297c-3.709,4.812-4.478,13.426-0.889,18.615
								c9.233,13.327,22.522,23.569,37.76,29.108c5.932,2.15,14.069-0.786,17.778-5.599c3.174-4.118,4.762-6.179,7.936-10.297
								C225.292,576.54,225.871,575.377,226.249,574.171z"/>
						</g>
						<g>
							<circle opacity="0.4" fill="#FFFFFF" cx="256.01" cy="480.177" r="98.5"/>
							<circle fill="none" stroke="#1B424C" stroke-width="26" stroke-miterlimit="10" cx="256.01" cy="480.177" r="98.5"/>
						</g>
					</g>
				</g>
				<g>
					<g>
						<defs>
							<path id="XMLID_15_" d="M78.782,738.76c-5.901,7.656-16.89,9.076-24.544,3.177l0,0c-7.655-5.901-9.077-16.891-3.176-24.544
								L164.005,570.87c5.9-7.655,16.889-9.076,24.544-3.176l0,0c7.655,5.9,9.077,16.888,3.177,24.544L78.782,738.76z"/>
						</defs>
						<clipPath id="XMLID_13_">
							<use xlink:href="#XMLID_15_"  overflow="visible"/>
						</clipPath>
					</g>
				</g>
			</g>
		</g>
		<g clip-path="url(#SVGID_4_)">
			<circle opacity="0.5" fill="#FFFFFF" cx="270.541" cy="479" r="62"/>
			<circle fill="#FFFFFF" cx="303.541" cy="484" r="24"/>
		</g>
	</g>
</g>
</svg>
